<svg xmlns="http://www.w3.org/2000/svg" viewBox="0 0 256 256">
  <g stroke="#d4af37" stroke-width="9" stroke-linejoin="round" fill="#211c2e">
    <polygon points="128,18 220,72 220,184 128,238 36,184 36,72"/>
  </g>
  <g stroke="#d4af37" stroke-width="6" stroke-linejoin="round" fill="#2c2540">
    <polygon points="128,58 186,160 70,160"/>
  </g>
  <g stroke="#a8842a" stroke-width="5" opacity="0.9" fill="none">
    <line x1="128" y1="18" x2="128" y2="58"/>
    <line x1="220" y1="72" x2="186" y2="160"/>
    <line x1="36" y1="72" x2="70" y2="160"/>
    <line x1="128" y1="238" x2="186" y2="160"/>
    <line x1="128" y1="238" x2="70" y2="160"/>
    <line x1="220" y1="184" x2="186" y2="160"/>
    <line x1="36" y1="184" x2="70" y2="160"/>
    <line x1="36" y1="72" x2="128" y2="58"/>
    <line x1="220" y1="72" x2="128" y2="58"/>
  </g>
  <circle cx="128" cy="122" r="14" fill="#d4af37"/>
  <circle cx="128" cy="122" r="6" fill="#211c2e"/>
</svg>
