<svg xmlns="http://www.w3.org/2000/svg" viewBox="0 0 1024 1024">
  <defs>
    <radialGradient id="vig" cx="50%" cy="45%" r="75%">
      <stop offset="55%" stop-color="#cdb287"/>
      <stop offset="100%" stop-color="#a3885c"/>
    </radialGradient>
    <linearGradient id="riv" x1="0" y1="0" x2="1" y2="1">
      <stop offset="0" stop-color="#5f8f86"/>
      <stop offset="1" stop-color="#47756e"/>
    </linearGradient>
  </defs>
  <rect width="1024" height="1024" fill="url(#vig)"/>
  <circle cx="180" cy="230" r="150" fill="#bd9f70" opacity="0.45"/>
  <circle cx="840" cy="300" r="120" fill="#8f7647" opacity="0.22"/>
  <circle cx="760" cy="880" r="190" fill="#bd9f70" opacity="0.38"/>
  <circle cx="420" cy="560" r="110" fill="#8f7647" opacity="0.16"/>
  <path d="M120 -20 C 260 190, 400 260, 500 500 C 590 730, 780 850, 1044 900"
        stroke="#96794e" stroke-width="52" fill="none" opacity="0.55" stroke-linecap="round"/>
  <path d="M120 -20 C 260 190, 400 260, 500 500 C 590 730, 780 850, 1044 900"
        stroke="#7c6440" stroke-width="8" fill="none" opacity="0.35" stroke-dasharray="26 34" stroke-linecap="round"/>
  <path d="M-20 690 C 190 630, 330 760, 520 715 C 700 672, 880 640, 1044 700 L 1044 812 C 860 748, 690 830, 510 806 C 330 782, 160 760, -20 812 Z"
        fill="url(#riv)" opacity="0.9"/>
  <path d="M-20 742 C 200 688, 350 792, 530 758 C 710 724, 900 700, 1044 752"
        stroke="#82b5aa" stroke-width="6" fill="none" opacity="0.45"/>
  <g fill="#7a6a4f" stroke="#57492f" stroke-width="5">
    <rect x="466" y="668" width="96" height="152" rx="10"/>
  </g>
  <g stroke="#57492f" stroke-width="5" opacity="0.7">
    <line x1="466" y1="700" x2="562" y2="700"/>
    <line x1="466" y1="730" x2="562" y2="730"/>
    <line x1="466" y1="760" x2="562" y2="760"/>
    <line x1="466" y1="790" x2="562" y2="790"/>
  </g>
  <g fill="#90909a" stroke="#5b5b66" stroke-width="4">
    <rect x="250" y="255" width="42" height="26" rx="7" transform="rotate(12 271 268)"/>
    <rect x="320" y="230" width="40" height="26" rx="7" transform="rotate(-9 340 243)"/>
    <rect x="385" y="262" width="42" height="26" rx="7" transform="rotate(24 406 275)"/>
    <rect x="410" y="330" width="40" height="26" rx="7" transform="rotate(80 430 343)"/>
    <rect x="384" y="400" width="42" height="26" rx="7" transform="rotate(150 405 413)"/>
    <rect x="316" y="428" width="40" height="26" rx="7" transform="rotate(185 336 441)"/>
    <rect x="250" y="402" width="42" height="26" rx="7" transform="rotate(210 271 415)"/>
    <rect x="228" y="330" width="40" height="26" rx="7" transform="rotate(265 248 343)"/>
  </g>
  <circle cx="330" cy="335" r="34" fill="#6d6d76" stroke="#4c4c55" stroke-width="4" opacity="0.85"/>
  <g stroke-width="4">
    <g transform="translate(120,850)">
      <circle r="42" fill="#4f7c3c" stroke="#3a5c2c"/>
      <circle cx="34" cy="-18" r="30" fill="#588a44" stroke="#3a5c2c"/>
      <circle cx="-30" cy="-22" r="26" fill="#588a44" stroke="#3a5c2c"/>
    </g>
    <g transform="translate(900,140)">
      <circle r="38" fill="#4f7c3c" stroke="#3a5c2c"/>
      <circle cx="-30" cy="16" r="26" fill="#588a44" stroke="#3a5c2c"/>
    </g>
    <g transform="translate(640,420)">
      <circle r="30" fill="#4f7c3c" stroke="#3a5c2c"/>
      <circle cx="26" cy="-12" r="22" fill="#588a44" stroke="#3a5c2c"/>
    </g>
  </g>
  <rect x="10" y="10" width="1004" height="1004" fill="none" stroke="#33281a" stroke-width="20" opacity="0.35"/>
  <rect x="26" y="26" width="972" height="972" fill="none" stroke="#d9c69a" stroke-width="4" opacity="0.5"/>
</svg>
