<svg xmlns="http://www.w3.org/2000/svg" viewBox="0 0 128 128">
  <rect width="128" height="128" fill="#4a7c3a"/>
  <circle cx="30" cy="34" r="22" fill="#548a41" opacity="0.7"/>
  <circle cx="96" cy="88" r="26" fill="#548a41" opacity="0.6"/>
  <circle cx="88" cy="24" r="14" fill="#3f6c32" opacity="0.7"/>
  <circle cx="24" cy="96" r="16" fill="#3f6c32" opacity="0.6"/>
  <g stroke="#66a04f" stroke-width="4" fill="none" stroke-linecap="round">
    <path d="M18 78 q3 -14 -1 -24"/>
    <path d="M26 80 q6 -12 4 -26"/>
    <path d="M62 48 q4 -14 0 -24"/>
    <path d="M70 50 q7 -10 5 -24"/>
    <path d="M96 112 q4 -14 0 -24"/>
    <path d="M104 114 q7 -10 5 -24"/>
    <path d="M44 116 q3 -12 -1 -20"/>
  </g>
  <g stroke="#2f5426" stroke-width="3" fill="none" stroke-linecap="round" opacity="0.8">
    <path d="M84 62 q3 -10 -1 -18"/>
    <path d="M50 20 q3 -8 -1 -14"/>
    <path d="M112 44 q3 -8 -1 -14"/>
  </g>
</svg>
