<svg xmlns="http://www.w3.org/2000/svg" viewBox="0 0 256 256">
  <circle cx="128" cy="128" r="120" fill="#39306b"/>
  <circle cx="128" cy="128" r="120" fill="none" stroke="#c9a23f" stroke-width="12"/>
  <circle cx="128" cy="128" r="104" fill="none" stroke="#8a6a24" stroke-width="4" opacity="0.8"/>
  <path d="M128 44 L166 128 L90 128 Z" fill="#6d5bb8" stroke="#4a3e85" stroke-width="8"/>
  <path d="M74 128 L182 128 L192 146 L64 146 Z" fill="#6d5bb8" stroke="#4a3e85" stroke-width="8"/>
  <path d="M96 156 Q128 176 160 156 L154 200 Q128 212 102 200 Z" fill="#584a9e" stroke="#4a3e85" stroke-width="6"/>
  <g fill="#efd965">
    <path d="M128 74 l5 12 12 2 -9 9 2 13 -10 -6 -10 6 2 -13 -9 -9 12 -2 Z"/>
    <circle cx="172" cy="92" r="6"/>
    <circle cx="86" cy="100" r="5"/>
    <circle cx="182" cy="182" r="5"/>
  </g>
</svg>
